<svg xmlns="http://www.w3.org/2000/svg" version="1.1" x="0" y="0" width="820" height="150" viewBox="0 0 820 150" enable-background="new 0 0 820 150" xml:space="preserve"><path fill="#FF6600" d="M35.8 46.3c55.3-25.5 70.8 20.4 117.5-8.5l5.4-25c-50.2 31.4-67.1-18.1-116 10.2L35.8 46.3zM33 132.6l13.9-46.5c35.8-14.7 62.7 15.5 96.3-1.9l5.4-24.9c-39.6 19.1-68.9-18.4-118.6 6.2L10 132.6H33zM190.5 25.1h66v8.3h-56.5v41.8h53v8.8h-53v50.8h-9.5V25.1zM265.9 55.7h8.9v12.9c3.2-4.5 6.8-8 10.9-10.4 4.1-2.5 8.4-3.7 13.1-3.7 1.1 0 2.2 0 3.1 0.1 1 0.1 2 0.2 3.1 0.4l-1.1 8.3c-1.8-0.3-3.5-0.5-5.1-0.5 -2.7 0-5.4 0.5-8.1 1.5 -2.8 1-5.4 2.6-7.8 5 -2.4 2.1-4.3 4.5-5.8 7.5 -1.5 2.9-2.3 6.4-2.3 10.4v47.7h-8.9V55.7zM373.5 114c-1.2 6.9-4.5 12.4-9.8 16.7 -5.3 4.3-12.9 6.5-22.7 6.5 -11.4 0-20.2-3.7-26.5-11 -6.3-7.3-9.4-17.4-9.4-30.2 0-7 0.9-13.1 2.7-18.4 1.8-5.3 4.3-9.8 7.5-13.4 3.2-3.6 7-6.4 11.4-8.2 4.4-1.8 9.1-2.8 14.4-2.8 6.1 0 11.4 1 15.7 3 4.3 2 7.8 4.7 10.5 8.1 2.7 3.4 4.7 7.5 5.9 12.2 1.2 4.7 1.8 9.8 1.8 15.2v5.7h-61c0 4.5 0.6 8.7 1.7 12.7 1.1 3.9 2.8 7.4 5.1 10.3 2.3 2.9 5.1 5.2 8.5 6.9 3.4 1.7 7.3 2.5 11.7 2.5 4 0 7.4-0.4 10.2-1.1 2.8-0.8 5.1-1.9 6.9-3.3 1.8-1.4 3.3-3.1 4.4-5 1.1-1.9 1.9-4 2.5-6.4H373.5zM365.7 89.7c0-4.3-0.5-8.2-1.4-11.8 -0.9-3.6-2.4-6.7-4.3-9.3 -2-2.6-4.5-4.6-7.7-6.1 -3.2-1.4-7-2.1-11.4-2.1 -7.7 0-13.9 2.4-18.5 7.2 -4.6 4.8-7.4 12.2-8.3 22.1H365.7zM452.5 114c-1.2 6.9-4.5 12.4-9.8 16.7 -5.3 4.3-12.9 6.5-22.7 6.5 -11.4 0-20.2-3.7-26.5-11 -6.3-7.3-9.4-17.4-9.4-30.2 0-7 0.9-13.1 2.7-18.4 1.8-5.3 4.3-9.8 7.5-13.4 3.2-3.6 7-6.4 11.4-8.2 4.4-1.8 9.1-2.8 14.4-2.8 6.1 0 11.4 1 15.7 3 4.3 2 7.8 4.7 10.5 8.1 2.7 3.4 4.7 7.5 5.9 12.2 1.2 4.7 1.8 9.8 1.8 15.2v5.7h-61c0 4.5 0.6 8.7 1.7 12.7 1.1 3.9 2.8 7.4 5.1 10.3 2.3 2.9 5.1 5.2 8.5 6.9 3.4 1.7 7.3 2.5 11.7 2.5 4 0 7.4-0.4 10.2-1.1 2.8-0.8 5.1-1.9 6.9-3.3 1.8-1.4 3.3-3.1 4.4-5 1.1-1.9 1.9-4 2.5-6.4H452.5zM444.7 89.7c0-4.3-0.5-8.2-1.4-11.8s-2.4-6.7-4.3-9.3c-2-2.6-4.5-4.6-7.7-6.1s-7-2.1-11.4-2.1c-7.7 0-13.9 2.4-18.5 7.2 -4.6 4.8-7.4 12.2-8.3 22.1H444.7zM466.3 25.1h21.5v39.2c6-8.1 14.2-12.1 24.6-12.1 11.2 0 19.5 3.8 25 11.4s8.3 18 8.3 31.2c0 6.4-0.8 12.1-2.4 17.4 -1.6 5.2-3.9 9.7-6.9 13.4 -3 3.7-6.7 6.6-11 8.7 -4.3 2-9.2 3.1-14.6 3.1 -4.3 0-8.4-0.8-12.4-2.4s-7.7-4.6-11.2-8.8v8.8h-20.9V25.1zM487.7 95.4c0 5.2 0.4 9.4 1.3 12.6 0.9 3.1 2.3 5.7 4.2 7.6 2 1.9 4.1 3.1 6.2 3.6 2.1 0.6 4.2 0.8 6.4 0.8 2.4 0 4.6-0.5 6.8-1.4 2.1-0.9 4-2.4 5.6-4.4 1.6-2 2.8-4.6 3.8-7.8 0.9-3.2 1.4-7 1.4-11.6 0-4.7-0.4-8.7-1.3-11.9 -0.9-3.2-2.1-5.8-3.6-7.8 -1.5-2-3.4-3.4-5.4-4.3 -2.1-0.9-4.3-1.3-6.7-1.3 -2.7 0-5 0.4-6.9 1.1 -1.9 0.7-3.8 1.8-5.7 3.4 -2 2-3.6 4.4-4.5 7.4 -1 3-1.5 6.8-1.5 11.4V95.4zM605.8 124.6c-3.2 3.6-6.7 6.5-10.7 8.8 -3.9 2.3-9 3.4-15.3 3.4 -3.6 0-7-0.5-10.2-1.4 -3.2-0.9-6-2.4-8.4-4.3 -2.4-1.9-4.3-4.4-5.8-7.4 -1.4-3-2.1-6.6-2.1-10.8 0-5.5 1.2-10 3.7-13.5 2.5-3.5 5.7-6.2 9.7-8.1 4-1.9 8.5-3.3 13.4-4.1 5-0.8 10-1.3 15.1-1.5l10.3-0.5v-4c0-4.9-1.4-8.3-4.1-10.1 -2.7-1.8-5.9-2.8-9.6-2.8 -8.5 0-13.4 3.2-14.6 9.7l-19.7-1.8c1.4-8.4 5.1-14.5 11.1-18.2 5.9-3.7 13.9-5.6 24-5.6 6.1 0 11.4 0.7 15.7 2.2 4.3 1.5 7.8 3.6 10.4 6.4 2.6 2.8 4.5 6.1 5.7 10.1 1.2 3.9 1.8 8.4 1.8 13.3v50.7h-20.3V124.6zM605.3 99l-9.5 0.5c-4.5 0.2-8.1 0.7-10.9 1.4 -2.8 0.7-4.9 1.6-6.4 2.7 -1.5 1.1-2.5 2.3-3 3.8 -0.5 1.4-0.8 3-0.8 4.8 0 2.7 0.9 4.8 2.8 6.3s4.4 2.3 7.7 2.3c5.5 0 10-1.3 13.5-3.8 1.9-1.4 3.5-3.2 4.8-5.5 1.2-2.2 1.8-4.9 1.8-8.2V99zM656 109.2c0.7 4.7 2.6 7.8 5.7 9.2 3.1 1.4 6.8 2.2 11.1 2.2 5.1 0 8.8-0.6 11-1.9s3.3-3.4 3.3-6.2c0-2-0.7-3.8-2.1-5.4 -1.4-1.5-4-2.6-7.9-3.2l-11.1-1.8c-9.7-1.5-17-4.2-21.7-7.9 -4.8-3.7-7.1-9.4-7.1-17 0-3.9 0.8-7.4 2.5-10.4 1.7-3.1 4.1-5.7 7.1-7.8 3.1-2.1 6.7-3.8 11-5 4.2-1.2 8.9-1.8 14-1.8 6.3 0 11.7 0.6 16 1.9 4.3 1.3 7.8 3 10.5 5.1 2.7 2.1 4.8 4.7 6.1 7.7 1.4 3 2.4 6.1 3 9.5l-19.2 2.5c-0.9-3.7-2.5-6.4-4.8-8.1 -2.3-1.7-6-2.6-11.1-2.6 -2.9 0-5.3 0.2-7.1 0.7 -1.9 0.5-3.4 1.1-4.5 1.8 -1.1 0.7-1.8 1.5-2.3 2.5 -0.5 0.9-0.7 1.8-0.7 2.6 0 2.6 0.8 4.4 2.4 5.6 1.6 1.2 4.7 2.2 9.3 3l10.1 1.7c5.6 0.9 10.3 2.1 14 3.5 3.7 1.4 6.6 3.2 8.8 5.3 2.2 2.1 3.7 4.6 4.6 7.4 0.9 2.9 1.3 6.2 1.3 10 0 7.6-2.9 13.6-8.6 18.2 -5.7 4.6-14.6 6.8-26.6 6.8 -4.8 0-9.4-0.4-13.7-1.3 -4.4-0.9-8.2-2.4-11.7-4.5 -3.4-2.1-6.2-5-8.4-8.6 -2.2-3.6-3.5-8.1-3.8-13.5H656zM792.4 109.7c-1.4 9-5 15.8-10.8 20.5 -5.8 4.7-14.2 7-25.3 7 -13.3 0-23.3-3.7-30-11.1 -6.7-7.4-10.1-17.8-10.1-31.3 0-6.8 1-12.8 2.9-18 1.9-5.3 4.7-9.7 8.2-13.4 3.5-3.7 7.8-6.5 12.7-8.4 4.9-1.9 10.3-2.8 16.3-2.8 12.3 0 21.5 3.5 27.7 10.6 6.2 7.1 9.3 16.6 9.3 28.6v8.6h-55.6c0.2 6.4 1.8 11.5 4.9 15.1 3.1 3.6 7.7 5.5 13.8 5.5 8.5 0 13.5-3.6 15-10.7H792.4zM772.6 85.8c0-5.5-1.4-9.8-4.1-12.9 -2.7-3.1-6.9-4.6-12.7-4.6 -2.9 0-5.4 0.5-7.5 1.4 -2.2 0.9-4 2.2-5.5 3.8 -1.5 1.6-2.6 3.4-3.5 5.5 -0.8 2.1-1.3 4.4-1.4 6.8H772.6zM792.8 45.8h-3.3v-1.5h8.3v1.5h-3.3v8.5h-1.7V45.8zM799.3 44.3h2.1l3.2 8.1 3.3-8.1H810v10h-1.5v-7.5l-3.1 7.5h-1.4l-3.1-7.5v7.5h-1.5V44.3z"/></svg>